<svg width="24" height="24" viewBox="0 0 24 24" fill="none" xmlns="http://www.w3.org/2000/svg">
<path d="M17.8682 4.80821C17.6072 4.80821 17.352 4.88561 17.135 5.03063C16.9179 5.17565 16.7488 5.38177 16.6489 5.62293C16.549 5.86408 16.5229 6.12944 16.5738 6.38546C16.6247 6.64147 16.7504 6.87663 16.935 7.0612C17.1195 7.24577 17.3547 7.37147 17.6107 7.42239C17.8667 7.47332 18.1321 7.44718 18.3732 7.34729C18.6144 7.2474 18.8205 7.07824 18.9655 6.86121C19.1106 6.64417 19.188 6.38901 19.188 6.12798C19.188 5.77796 19.0489 5.44227 18.8014 5.19476C18.5539 4.94726 18.2182 4.80821 17.8682 4.80821Z" fill="black"/>
<path d="M11.9981 6.35176C10.8821 6.35176 9.79119 6.68269 8.86329 7.30269C7.93538 7.9227 7.21217 8.80394 6.7851 9.83497C6.35804 10.866 6.2463 12.0005 6.46401 13.0951C6.68173 14.1896 7.21913 15.195 8.00824 15.9841C8.79736 16.7732 9.80276 17.3106 10.8973 17.5283C11.9918 17.7461 13.1263 17.6343 14.1574 17.2072C15.1884 16.7802 16.0696 16.057 16.6897 15.1291C17.3097 14.2012 17.6406 13.1102 17.6406 11.9943C17.6406 10.4978 17.0461 9.06259 15.9879 8.00441C14.9298 6.94624 13.4946 6.35176 11.9981 6.35176ZM11.9981 15.6695C11.2724 15.6686 10.5632 15.4525 9.96028 15.0487C9.35732 14.6448 8.88761 14.0713 8.6105 13.4006C8.33339 12.7299 8.26133 11.9921 8.40342 11.2804C8.54551 10.5687 8.89537 9.91515 9.40879 9.40226C9.92222 8.88938 10.5762 8.54019 11.288 8.39885C11.9998 8.2575 12.7375 8.33033 13.4079 8.60813C14.0784 8.88594 14.6514 9.35625 15.0546 9.95963C15.4579 10.563 15.6732 11.2724 15.6734 11.9981C15.6739 12.4809 15.5791 12.959 15.3946 13.4051C15.2101 13.8513 14.9394 14.2566 14.598 14.598C14.2566 14.9394 13.8513 15.2101 13.4052 15.3946C12.959 15.5791 12.4809 15.6739 11.9981 15.6734" fill="black"/>
<path d="M22.9292 7.46401C22.9122 6.55172 22.7409 5.64891 22.4224 4.79386C22.1396 4.06239 21.7071 3.39808 21.1526 2.84356C20.5981 2.28903 19.9338 1.85654 19.2023 1.57381C18.3473 1.25531 17.4445 1.08393 16.5322 1.06694C15.3597 1.01243 14.9838 1 11.9981 1C9.01235 1 8.6365 1.01243 7.46401 1.06694C6.55172 1.08393 5.64891 1.25531 4.79386 1.57381C4.06239 1.85654 3.39808 2.28903 2.84356 2.84356C2.28903 3.39808 1.85654 4.06239 1.57381 4.79386C1.25531 5.64891 1.08393 6.55172 1.06694 7.46401C1.01243 8.6365 1 9.01235 1 11.9981C1 14.9838 1.01243 15.3597 1.06694 16.5322C1.08393 17.4445 1.25531 18.3473 1.57381 19.2023C1.85665 19.934 2.2894 20.5985 2.84428 21.1531C3.39915 21.7076 4.06389 22.14 4.79577 22.4224C5.64994 22.7421 6.55213 22.9148 7.46401 22.9331C8.63745 22.9876 9.01043 23 11.9981 23C14.9857 23 15.3597 22.9876 16.5322 22.9331C17.4447 22.9148 18.3475 22.7422 19.2023 22.4224C19.9338 22.1396 20.5981 21.7071 21.1526 21.1526C21.7071 20.5981 22.1396 19.9338 22.4224 19.2023C22.7422 18.3475 22.9148 17.4447 22.9331 16.5322C22.9876 15.3587 23 14.9838 23 11.9981C23 9.01235 22.9876 8.6365 22.9331 7.46401H22.9292ZM20.9544 16.4432C20.9435 17.1403 20.8141 17.8304 20.5718 18.4841C20.3887 18.9585 20.1084 19.3893 19.7488 19.7488C19.3893 20.1084 18.9585 20.3887 18.4841 20.5718C17.8298 20.8142 17.139 20.9435 16.4413 20.9544C15.2822 21.007 14.9351 21.0184 11.9981 21.0184C9.06112 21.0184 8.71396 21.007 7.55486 20.9544C6.85718 20.9435 6.16641 20.8142 5.51208 20.5718C5.03798 20.3882 4.60742 20.1077 4.24792 19.7483C3.88843 19.3888 3.60793 18.9582 3.42436 18.4841C3.18205 17.8304 3.05269 17.1403 3.04182 16.4432C2.98922 15.2832 2.97774 14.9351 2.97774 11.9981C2.97774 9.06112 2.98922 8.71396 3.04182 7.55486C3.05195 6.85711 3.18133 6.16622 3.42436 5.51208C3.60793 5.03798 3.88843 4.60742 4.24792 4.24792C4.60742 3.88843 5.03798 3.60793 5.51208 3.42436C6.16641 3.182 6.85718 3.05264 7.55486 3.04182C8.71396 2.98922 9.06112 2.97774 11.9981 2.97774C14.9351 2.97774 15.2822 2.98922 16.4413 3.04182C17.139 3.05264 17.8298 3.182 18.4841 3.42436C18.9582 3.60793 19.3888 3.88843 19.7483 4.24792C20.1077 4.60742 20.3882 5.03798 20.5718 5.51208C20.8142 6.16641 20.9435 6.85718 20.9544 7.55486C21.007 8.71396 21.0184 9.06112 21.0184 11.9981C21.0184 14.9351 21.007 15.2822 20.9544 16.4432Z" fill="black"/>
</svg>
