<svg xmlns="http://www.w3.org/2000/svg" xmlns:xlink="http://www.w3.org/1999/xlink" width="179.618" height="1097.131" viewBox="0 0 179.618 1097.131">
  <defs>
    <clipPath id="clip-path">
      <path id="Path_6" data-name="Path 6" d="M0,179.618H1097.131V0H0Z"/>
    </clipPath>
  </defs>
  <g id="logo-lj24__bottom" transform="translate(0 1097.131) rotate(-90)">
    <g id="Group_5" data-name="Group 5" transform="translate(0 0)" clip-path="url(#clip-path)">
      <g id="Group_4" data-name="Group 4" transform="translate(0 0)">
        <path id="Path_5" data-name="Path 5" d="M0,155.013v20.914H32.725q26.817,0,41.091-13.165T88.087,121.8V3.691H63.481V121.8q0,16.735-6.643,24.973t-24.113,8.244Zm158.95,4.921A24.286,24.286,0,0,1,150.338,156a18.17,18.17,0,0,1-5.783-7.26,26.029,26.029,0,0,1-2.09-10.948q0-10.334,6.4-16.239t19.438-7.136l41.829-3.691v9.842a44.23,44.23,0,0,1-3.2,17.224,36.575,36.575,0,0,1-8.736,12.795,37.72,37.72,0,0,1-12.917,7.874,45.351,45.351,0,0,1-15.747,2.707,43.384,43.384,0,0,1-10.58-1.23m-9.6-78.737q.978-8.363,8.488-13.411t21.531-5.043a47.351,47.351,0,0,1,14.763,1.968,23.049,23.049,0,0,1,9.472,5.659,20.7,20.7,0,0,1,5.045,8.98,43.452,43.452,0,0,1,1.476,11.689V93.5l-44.289,3.691q-24.119,1.972-35.556,12.917t-11.44,27.682a41.85,41.85,0,0,0,3.813,18.454,36.262,36.262,0,0,0,10.458,13.041,46.008,46.008,0,0,0,15.377,7.75,65.17,65.17,0,0,0,18.578,2.585q15.741,0,26.574-6.151t16.485-13.533v15.993h23.621V91.039q0-15.5-6.151-25.836a37.093,37.093,0,0,0-19.562-16.239,82.468,82.468,0,0,0-28.664-4.675,78.572,78.572,0,0,0-22.761,2.953,54.988,54.988,0,0,0-16.486,7.874A35.346,35.346,0,0,0,129.669,66.8a40.639,40.639,0,0,0-4.675,14.4ZM331.922,67.664V45.52h-6.643q-14.025,0-21.9,4.429a32.441,32.441,0,0,0-12.549,12.795V47.98H267.21V175.927h23.621V99.651q0-16.728,7.626-24.359t20.668-7.628Zm111.954,62.619a45.685,45.685,0,0,1-7.5,15.379,35.494,35.494,0,0,1-29.4,14.271,37.473,37.473,0,0,1-16.978-3.691,36.211,36.211,0,0,1-12.425-10.088A42.752,42.752,0,0,1,370.06,130.9a70.425,70.425,0,0,1-2.461-18.946A69.123,69.123,0,0,1,370.06,93.13a44.22,44.22,0,0,1,7.506-15.255,35.7,35.7,0,0,1,12.425-10.21,37.473,37.473,0,0,1,16.978-3.691,35.479,35.479,0,0,1,29.4,14.271,45.724,45.724,0,0,1,7.5,15.379,69.5,69.5,0,0,1,0,36.66m1.23,45.644h23.621V3.691H445.106V65.2a41.858,41.858,0,0,0-16.361-15.133q-10.7-5.776-25.467-5.781-14.52,0-25.465,5.413a55.989,55.989,0,0,0-18.578,14.639,62.308,62.308,0,0,0-11.44,21.531,91.065,91.065,0,0,0,0,52.163,62.241,62.241,0,0,0,11.44,21.529,55.941,55.941,0,0,0,18.578,14.641q10.943,5.41,25.465,5.413,14.763,0,25.467-5.781A41.8,41.8,0,0,0,445.106,158.7Zm58.312,0h23.621V47.98H503.418Zm0-147.631h23.621V3.691H503.418ZM585.349,47.98H561.728V175.927h23.621V103.342a47.18,47.18,0,0,1,2.831-16.978,36.961,36.961,0,0,1,7.628-12.427,30.141,30.141,0,0,1,11.318-7.5,39.071,39.071,0,0,1,13.9-2.461q15.5,0,22.391,8.12t6.889,23.867v79.967h23.621V93.5q0-24.11-12.179-36.662T627.178,44.289a56.017,56.017,0,0,0-24.235,5.289A40.675,40.675,0,0,0,585.349,65.2Zm175.185,75.538a86.858,86.858,0,0,1,10.7,1.968,35.807,35.807,0,0,1,8.366,3.2,14.707,14.707,0,0,1,5.535,5.167,15.794,15.794,0,0,1,1.968,8.366q0,8.858-7.75,14.025t-23.007,5.167q-14.763,0-22.883-5.045t-8.612-16.115H700.99A36.013,36.013,0,0,0,704.927,156a36.546,36.546,0,0,0,10.7,12.425,52.454,52.454,0,0,0,17.224,8.244,84.772,84.772,0,0,0,23.5,2.953q25.836,0,39.984-10.826t14.147-28.542q0-10.334-3.567-17.348a31.435,31.435,0,0,0-9.72-11.44,47.892,47.892,0,0,0-14.393-6.889,133.652,133.652,0,0,0-17.84-3.937l-11.81-1.722q-12.306-1.965-19.314-5.783t-7.013-13.163q0-7.382,6.767-12.549t22.267-5.167q14.268,0,21.406,5.289A17.684,17.684,0,0,1,784.894,81.2h23.129a37.224,37.224,0,0,0-3.567-13.165,35.157,35.157,0,0,0-9.35-11.811,49.5,49.5,0,0,0-15.871-8.612q-9.6-3.322-22.883-3.321-25.836,0-39.368,10.58T703.45,81.935a33.345,33.345,0,0,0,12.919,27.68,49.139,49.139,0,0,0,14.393,7.752A98.544,98.544,0,0,0,748.97,121.8Zm96.452-78q.738-12.053,9.228-18.332t22.513-6.273q15.744,0,23.253,8.12t7.5,20.176a39.783,39.783,0,0,1-4.675,19.068q-4.678,8.738-15.009,19.07l-67.664,67.664v20.914H947.78V155.013H862.892l53.639-51.671a160.172,160.172,0,0,0,12.919-13.9A74.344,74.344,0,0,0,938.062,76.4a51.229,51.229,0,0,0,4.675-13.409,78.262,78.262,0,0,0,1.352-15.009,47.362,47.362,0,0,0-3.937-19.438,42.712,42.712,0,0,0-11.194-15.133,53.327,53.327,0,0,0-17.47-9.842A68.789,68.789,0,0,0,888.727,0,75.457,75.457,0,0,0,867.2,2.953a53.012,53.012,0,0,0-17.47,8.734,44.081,44.081,0,0,0-12.059,14.271,50.337,50.337,0,0,0-5.535,19.562Zm107.277,75.046V141.48h83.658v34.447h24.605V141.48h24.605V120.566h-24.605V3.691h-25.835Zm25.836,0L1014.95,85.38q7.381-10.334,12.549-18.086t9.1-13.655q3.934-5.905,6.643-10.458t5.167-8.734h.984q-.5,5.905-.738,11.318t-.492,11.564q-.249,6.154-.246,13.655v49.581Z"/>
      </g>
    </g>
  </g>
</svg>
