<svg xmlns="http://www.w3.org/2000/svg" xmlns:xlink="http://www.w3.org/1999/xlink" width="191.709" height="65.391" viewBox="0 0 191.709 65.391">
  <defs>
    <clipPath id="clip-path">
      <path id="Path_4" data-name="Path 4" d="M0-52.935H191.709v-30.72H0Z" transform="translate(0 83.655)"/>
    </clipPath>
    <clipPath id="clip-path-2">
      <path id="Path_6" data-name="Path 6" d="M0-54.045H191.58V-85.41H0Z" transform="translate(0 85.41)"/>
    </clipPath>
  </defs>
  <g id="logo-lj24" transform="translate(-28 -15)">
    <g id="Group_3" data-name="Group 3" transform="translate(28 15)">
      <g id="Group_2" data-name="Group 2" transform="translate(0 0)" clip-path="url(#clip-path)">
        <g id="Group_1" data-name="Group 1" transform="translate(0 0)">
          <path id="Path_3" data-name="Path 3" d="M-26.5-45.531v3.652h-5.714q-4.684,0-7.175-2.3t-2.492-7.154V-71.955h4.3v20.623a6.865,6.865,0,0,0,1.16,4.361q1.16,1.44,4.211,1.439Zm11.386.859a4.241,4.241,0,0,1-1.5-.687,3.174,3.174,0,0,1-1.01-1.267A4.548,4.548,0,0,1-18-48.539a3.666,3.666,0,0,1,1.117-2.836,5.685,5.685,0,0,1,3.394-1.246l7.3-.644v1.719a7.723,7.723,0,0,1-.559,3.008A6.387,6.387,0,0,1-8.266-46.3a6.586,6.586,0,0,1-2.255,1.375,7.919,7.919,0,0,1-2.75.473,7.576,7.576,0,0,1-1.848-.215m-1.676-13.749a3.174,3.174,0,0,1,1.482-2.342,6.73,6.73,0,0,1,3.76-.881,8.268,8.268,0,0,1,2.578.344,4.025,4.025,0,0,1,1.654.988,3.614,3.614,0,0,1,.881,1.568A7.583,7.583,0,0,1-6.182-56.7v.43l-7.734.644q-4.212.344-6.209,2.256a6.405,6.405,0,0,0-2,4.833,7.308,7.308,0,0,0,.666,3.222,6.332,6.332,0,0,0,1.826,2.277,8.034,8.034,0,0,0,2.685,1.353,11.38,11.38,0,0,0,3.244.451,9.274,9.274,0,0,0,4.64-1.074,9.439,9.439,0,0,0,2.879-2.363v2.793h4.125V-56.7a8.7,8.7,0,0,0-1.074-4.511,6.477,6.477,0,0,0-3.416-2.836,14.4,14.4,0,0,0-5.005-.816,13.72,13.72,0,0,0-3.974.516,9.6,9.6,0,0,0-2.879,1.375,6.17,6.17,0,0,0-1.826,2.041,7.092,7.092,0,0,0-.816,2.513ZM19.124-41.879h4.125V-64.221H19.124v12.675a7.019,7.019,0,0,1-1.719,5.135,5.794,5.794,0,0,1-4.3,1.74A4.863,4.863,0,0,1,9.2-46.09,6.287,6.287,0,0,1,8-50.257V-64.221H3.872v14.393q0,4.211,2.127,6.4a8.025,8.025,0,0,0,6.037,2.191,10.566,10.566,0,0,0,4.189-.816,5.821,5.821,0,0,0,2.9-2.621Zm19.334-9.152a15.161,15.161,0,0,1,1.869.344,6.247,6.247,0,0,1,1.461.559,2.569,2.569,0,0,1,.967.9,2.762,2.762,0,0,1,.344,1.461,2.8,2.8,0,0,1-1.354,2.449,7.286,7.286,0,0,1-4.017.9,7.585,7.585,0,0,1-4-.881,3.249,3.249,0,0,1-1.5-2.814H28.061a6.288,6.288,0,0,0,.687,2.75,6.385,6.385,0,0,0,1.869,2.17,9.17,9.17,0,0,0,3.008,1.439,14.806,14.806,0,0,0,4.1.516q4.511,0,6.982-1.89a5.974,5.974,0,0,0,2.471-4.984,6.638,6.638,0,0,0-.623-3.029,5.483,5.483,0,0,0-1.7-2,8.365,8.365,0,0,0-2.514-1.2,23.331,23.331,0,0,0-3.115-.687l-2.062-.3a10.72,10.72,0,0,1-3.373-1.01,2.4,2.4,0,0,1-1.224-2.3,2.68,2.68,0,0,1,1.181-2.191,6.5,6.5,0,0,1,3.889-.9,6.253,6.253,0,0,1,3.738.924,3.088,3.088,0,0,1,1.332,2.384h4.039a6.49,6.49,0,0,0-.623-2.3A6.132,6.132,0,0,0,44.5-62.782a8.634,8.634,0,0,0-2.771-1.5,12.254,12.254,0,0,0-4-.58q-4.511,0-6.874,1.848a5.743,5.743,0,0,0-2.363,4.726,6.13,6.13,0,0,0,.6,2.814,6.064,6.064,0,0,0,1.654,2.019A8.575,8.575,0,0,0,33.26-52.1a17.2,17.2,0,0,0,3.179.773Zm19.936,6.359a4.247,4.247,0,0,1-1.5-.687,3.177,3.177,0,0,1-1.01-1.267,4.548,4.548,0,0,1-.365-1.912,3.666,3.666,0,0,1,1.117-2.836,5.684,5.684,0,0,1,3.394-1.246l7.3-.644v1.719a7.724,7.724,0,0,1-.558,3.008A6.387,6.387,0,0,1,65.247-46.3a6.587,6.587,0,0,1-2.256,1.375,7.919,7.919,0,0,1-2.75.473,7.581,7.581,0,0,1-1.848-.215M56.719-58.421A3.174,3.174,0,0,1,58.2-60.763a6.729,6.729,0,0,1,3.759-.881,8.269,8.269,0,0,1,2.578.344,4.027,4.027,0,0,1,1.654.988,3.614,3.614,0,0,1,.881,1.568,7.6,7.6,0,0,1,.257,2.041v.43l-7.734.644q-4.211.344-6.208,2.256a6.405,6.405,0,0,0-2,4.833,7.308,7.308,0,0,0,.666,3.222,6.335,6.335,0,0,0,1.826,2.277,8.039,8.039,0,0,0,2.686,1.353,11.379,11.379,0,0,0,3.244.451,9.274,9.274,0,0,0,4.641-1.074,9.433,9.433,0,0,0,2.878-2.363v2.793h4.125V-56.7a8.7,8.7,0,0,0-1.074-4.511,6.477,6.477,0,0,0-3.416-2.836,14.4,14.4,0,0,0-5.006-.816,13.719,13.719,0,0,0-3.974.516,9.6,9.6,0,0,0-2.879,1.375,6.175,6.175,0,0,0-1.826,2.041,7.1,7.1,0,0,0-.816,2.513Zm25.005-5.8H77.6v22.342h4.125V-54.554a8.238,8.238,0,0,1,.494-2.965,6.449,6.449,0,0,1,1.332-2.17A5.26,5.26,0,0,1,85.527-61a6.824,6.824,0,0,1,2.427-.43,4.864,4.864,0,0,1,3.91,1.418,6.293,6.293,0,0,1,1.2,4.168v13.964h4.125V-56.273q0-4.21-2.127-6.4a8.026,8.026,0,0,0-6.037-2.191,9.777,9.777,0,0,0-4.232.924,7.1,7.1,0,0,0-3.072,2.728Zm25.736,0h-4.125v22.342h4.125V-54.554a8.247,8.247,0,0,1,.494-2.965,6.449,6.449,0,0,1,1.332-2.17A5.262,5.262,0,0,1,111.262-61a6.826,6.826,0,0,1,2.428-.43,4.864,4.864,0,0,1,3.91,1.418,6.3,6.3,0,0,1,1.2,4.168v13.964h4.125V-56.273q0-4.21-2.127-6.4a8.026,8.026,0,0,0-6.036-2.191,9.778,9.778,0,0,0-4.232.924,7.1,7.1,0,0,0-3.072,2.728Zm37.508,16.112a3.859,3.859,0,0,1-.516,1.224,4.812,4.812,0,0,1-1.074,1.182,5.4,5.4,0,0,1-1.719.9,7.455,7.455,0,0,1-2.363.344,6.68,6.68,0,0,1-2.9-.6,6.907,6.907,0,0,1-2.17-1.59,7.51,7.51,0,0,1-1.418-2.256,7.575,7.575,0,0,1-.559-2.643h17.573v-.43a22.57,22.57,0,0,0-.172-2.793,15.226,15.226,0,0,0-.559-2.621,11.471,11.471,0,0,0-3.523-5.414,9.738,9.738,0,0,0-6.488-2.062,10.937,10.937,0,0,0-4.511.9,10.245,10.245,0,0,0-3.459,2.492,11.067,11.067,0,0,0-2.213,3.76,13.785,13.785,0,0,0-.773,4.662,13.779,13.779,0,0,0,.773,4.662,10.874,10.874,0,0,0,2.234,3.76,10.352,10.352,0,0,0,3.523,2.492,11.463,11.463,0,0,0,4.64.9,12.137,12.137,0,0,0,3.8-.559,10.286,10.286,0,0,0,2.965-1.5,8.968,8.968,0,0,0,2.105-2.191,9.08,9.08,0,0,0,1.225-2.621Zm-3.072-13a5.781,5.781,0,0,1,2.041,1.461,6.391,6.391,0,0,1,1.246,2.17,10.123,10.123,0,0,1,.516,2.707H132.25a8.031,8.031,0,0,1,.516-2.621,6.627,6.627,0,0,1,1.353-2.191,6.577,6.577,0,0,1,2.105-1.5,6.831,6.831,0,0,1,2.857-.559,6.947,6.947,0,0,1,2.814.537" transform="translate(41.886 71.955)"/>
        </g>
      </g>
    </g>
    <g id="Group_6" data-name="Group 6" transform="translate(28 49.026)">
      <g id="Group_5" data-name="Group 5" transform="translate(0 0)" clip-path="url(#clip-path-2)">
        <g id="Group_4" data-name="Group 4" transform="translate(0 0)">
          <path id="Path_5" data-name="Path 5" d="M0-46.642v3.652H5.714q4.683,0,7.175-2.3t2.492-7.154V-73.066h-4.3v20.623a6.863,6.863,0,0,1-1.16,4.361q-1.16,1.44-4.211,1.44Zm27.756.859a4.241,4.241,0,0,1-1.5-.687,3.173,3.173,0,0,1-1.01-1.268,4.545,4.545,0,0,1-.365-1.912,3.666,3.666,0,0,1,1.117-2.836,5.685,5.685,0,0,1,3.394-1.246l7.3-.644v1.719a7.724,7.724,0,0,1-.559,3.008,6.387,6.387,0,0,1-1.525,2.234,6.586,6.586,0,0,1-2.256,1.375,7.919,7.919,0,0,1-2.75.473,7.576,7.576,0,0,1-1.848-.215M26.08-59.531a3.174,3.174,0,0,1,1.482-2.342,6.73,6.73,0,0,1,3.76-.881,8.268,8.268,0,0,1,2.578.344,4.025,4.025,0,0,1,1.654.988,3.615,3.615,0,0,1,.881,1.568,7.588,7.588,0,0,1,.258,2.041v.43l-7.734.644q-4.212.344-6.209,2.255a6.407,6.407,0,0,0-2,4.834,7.308,7.308,0,0,0,.666,3.222,6.332,6.332,0,0,0,1.826,2.277A8.034,8.034,0,0,0,25.929-42.8a11.38,11.38,0,0,0,3.244.451,9.274,9.274,0,0,0,4.64-1.074,9.439,9.439,0,0,0,2.879-2.363v2.793h4.125V-57.813a8.7,8.7,0,0,0-1.074-4.511,6.477,6.477,0,0,0-3.416-2.836,14.4,14.4,0,0,0-5.005-.816,13.72,13.72,0,0,0-3.974.516,9.6,9.6,0,0,0-2.879,1.375,6.172,6.172,0,0,0-1.826,2.041,7.1,7.1,0,0,0-.816,2.514Zm31.88-2.363v-3.867H56.8a7.857,7.857,0,0,0-3.824.773,5.665,5.665,0,0,0-2.191,2.234v-2.578H46.66V-42.99h4.125V-56.309a5.825,5.825,0,0,1,1.332-4.254,4.877,4.877,0,0,1,3.609-1.332ZM77.509-50.96a7.977,7.977,0,0,1-1.31,2.686,6.354,6.354,0,0,1-2.17,1.826,6.359,6.359,0,0,1-2.965.666,6.543,6.543,0,0,1-2.965-.644,6.323,6.323,0,0,1-2.17-1.762,7.465,7.465,0,0,1-1.311-2.664,12.3,12.3,0,0,1-.43-3.308,12.07,12.07,0,0,1,.43-3.287,7.722,7.722,0,0,1,1.311-2.664,6.234,6.234,0,0,1,2.17-1.783,6.544,6.544,0,0,1,2.965-.644,6.372,6.372,0,0,1,2.965.666,6.367,6.367,0,0,1,2.17,1.826,7.984,7.984,0,0,1,1.31,2.686,11.764,11.764,0,0,1,.43,3.2,11.76,11.76,0,0,1-.43,3.2m.215,7.97h4.125V-73.066H77.724v10.741a7.309,7.309,0,0,0-2.857-2.643,9.236,9.236,0,0,0-4.447-1.009,9.917,9.917,0,0,0-4.447.945,9.777,9.777,0,0,0-3.244,2.556,10.88,10.88,0,0,0-2,3.76,15.276,15.276,0,0,0-.666,4.554,15.269,15.269,0,0,0,.666,4.554,10.868,10.868,0,0,0,2,3.759,9.768,9.768,0,0,0,3.244,2.557,9.917,9.917,0,0,0,4.447.945,9.236,9.236,0,0,0,4.447-1.009A7.3,7.3,0,0,0,77.724-46Zm10.182,0h4.125V-65.332H87.906Zm0-25.779h4.125v-4.3H87.906Zm14.307,3.437H98.089V-42.99h4.125V-55.665a8.238,8.238,0,0,1,.494-2.965,6.454,6.454,0,0,1,1.332-2.17,5.263,5.263,0,0,1,1.976-1.31,6.822,6.822,0,0,1,2.427-.43,4.864,4.864,0,0,1,3.91,1.418,6.293,6.293,0,0,1,1.2,4.168V-42.99h4.125V-57.383q0-4.21-2.127-6.4a8.026,8.026,0,0,0-6.037-2.191,9.782,9.782,0,0,0-4.232.924,7.1,7.1,0,0,0-3.072,2.728ZM132.8-52.141a15.168,15.168,0,0,1,1.869.344,6.253,6.253,0,0,1,1.461.559,2.568,2.568,0,0,1,.967.9,2.758,2.758,0,0,1,.344,1.461,2.8,2.8,0,0,1-1.353,2.449,7.287,7.287,0,0,1-4.017.9,7.581,7.581,0,0,1-4-.881,3.249,3.249,0,0,1-1.5-2.814h-4.168a6.289,6.289,0,0,0,.687,2.75,6.382,6.382,0,0,0,1.869,2.17,9.159,9.159,0,0,0,3.008,1.44,14.8,14.8,0,0,0,4.1.516q4.511,0,6.982-1.89a5.974,5.974,0,0,0,2.47-4.984,6.64,6.64,0,0,0-.623-3.029,5.489,5.489,0,0,0-1.7-2,8.363,8.363,0,0,0-2.513-1.2,23.339,23.339,0,0,0-3.115-.687l-2.062-.3a10.708,10.708,0,0,1-3.373-1.01,2.4,2.4,0,0,1-1.225-2.3,2.68,2.68,0,0,1,1.182-2.191,6.5,6.5,0,0,1,3.888-.9,6.256,6.256,0,0,1,3.738.924,3.088,3.088,0,0,1,1.332,2.385H141.1a6.5,6.5,0,0,0-.623-2.3,6.14,6.14,0,0,0-1.633-2.062,8.643,8.643,0,0,0-2.771-1.5,12.255,12.255,0,0,0-4-.58q-4.511,0-6.874,1.848a5.744,5.744,0,0,0-2.363,4.726,6.127,6.127,0,0,0,.6,2.814,6.07,6.07,0,0,0,1.654,2.019,8.581,8.581,0,0,0,2.513,1.354,17.208,17.208,0,0,0,3.179.773Zm16.842-13.62a4.065,4.065,0,0,1,1.611-3.2,6.46,6.46,0,0,1,3.931-1.1,5.279,5.279,0,0,1,4.06,1.418,5,5,0,0,1,1.31,3.523,6.947,6.947,0,0,1-.816,3.33,14.806,14.806,0,0,1-2.621,3.33L145.307-46.642v3.652H165.5v-3.652H150.677l9.366-9.023a27.968,27.968,0,0,0,2.256-2.428,12.981,12.981,0,0,0,1.5-2.277,8.945,8.945,0,0,0,.816-2.341,13.668,13.668,0,0,0,.236-2.621,8.271,8.271,0,0,0-.687-3.394,7.458,7.458,0,0,0-1.955-2.643,9.312,9.312,0,0,0-3.051-1.719,12.012,12.012,0,0,0-3.975-.623,13.176,13.176,0,0,0-3.759.516,9.256,9.256,0,0,0-3.051,1.525,7.7,7.7,0,0,0-2.106,2.492,8.79,8.79,0,0,0-.967,3.416Zm18.733,13.1V-49h14.608v6.015h4.3V-49h4.3v-3.652h-4.3V-73.066h-4.511Zm4.511,0,4.34-6.144q1.289-1.8,2.191-3.158l1.59-2.384q.687-1.031,1.16-1.826t.9-1.525h.172q-.086,1.031-.129,1.976T183.03-63.7q-.043,1.075-.043,2.384v8.658Z" transform="translate(0 73.71)"/>
        </g>
      </g>
    </g>
  </g>
</svg>
