<svg width="101" height="47" viewBox="0 0 101 47" fill="none" xmlns="http://www.w3.org/2000/svg">
<g clip-path="url(#clip0_209_2)">
<path d="M99.6784 43.2035C99.6706 42.9997 99.6218 42.7996 99.5349 42.6149C99.448 42.4301 99.3248 42.2645 99.1725 42.1278C99.0201 41.9912 98.8418 41.8861 98.6479 41.8189C98.4541 41.7518 98.2487 41.7238 98.0438 41.7367C97.6262 41.7324 97.2212 41.8788 96.9041 42.1485C96.5869 42.4182 96.379 42.7931 96.319 43.2035M98.0438 47.0001C97.6226 47.0122 97.2036 46.9362 96.8139 46.7769C96.4243 46.6176 96.0728 46.3787 95.7822 46.0756C95.4917 45.7725 95.2687 45.4122 95.1276 45.0179C94.9866 44.6236 94.9307 44.2042 94.9635 43.7871C94.9427 43.3676 95.009 42.9484 95.1583 42.5554C95.3075 42.1625 95.5365 41.8042 95.8311 41.5029C96.1257 41.2015 96.4795 40.9636 96.8706 40.8038C97.2617 40.644 97.6817 40.5657 98.1045 40.5739C98.4941 40.5595 98.8824 40.6261 99.2445 40.7695C99.6066 40.9128 99.9346 41.1298 100.207 41.4065C100.48 41.6832 100.691 42.0134 100.828 42.376C100.964 42.7386 101.023 43.1256 101 43.5121C101.003 43.7464 100.993 43.9807 100.971 44.2141H96.2875C96.316 44.6585 96.5191 45.0741 96.853 45.3714C97.187 45.6687 97.625 45.824 98.073 45.8039C98.3566 45.8401 98.6445 45.7892 98.8981 45.6581C99.1516 45.527 99.3587 45.3219 99.4915 45.0705H100.847C100.664 45.6571 100.289 46.1659 99.7806 46.5157C99.2725 46.8655 98.661 47.036 98.0438 47.0001M93.4212 46.8772H92.0973V43.389C92.0973 42.3784 91.6672 41.8887 90.8318 41.8887C89.8479 41.8887 89.2331 42.5618 89.2331 43.6931V46.8772H87.9048V40.6947H89.1702V41.4281C89.3984 41.1548 89.6858 40.936 90.0109 40.7881C90.336 40.6402 90.6905 40.567 91.048 40.5739C92.5296 40.5739 93.4212 41.5824 93.4212 43.3265V46.8772ZM86.1508 46.8772H84.8561V43.389C84.8561 42.3784 84.4238 41.8887 83.5614 41.8887C82.5774 41.8887 81.9606 42.5618 81.9606 43.6931V46.8772H80.6341V40.6947H81.8996V41.4281C82.1297 41.157 82.4174 40.9397 82.7421 40.7921C83.0667 40.6444 83.4203 40.5699 83.7774 40.5739C85.2567 40.5739 86.1506 41.5824 86.1506 43.3265L86.1508 46.8772ZM76.0118 44.2432C75.3656 44.2432 74.9671 44.5808 74.9671 45.0392C74.9671 45.5289 75.3363 45.8665 76.0433 45.8665C76.2503 45.8682 76.4551 45.8259 76.6442 45.7423C76.8332 45.6587 77.002 45.5359 77.1392 45.382C77.2764 45.2282 77.3788 45.0469 77.4395 44.8505C77.5002 44.654 77.5178 44.4469 77.4911 44.2432H76.0118ZM75.8272 47.0001C74.5033 47.0001 73.6409 46.2332 73.6409 45.1309C73.6409 43.9704 74.5033 43.2661 75.8924 43.2661H77.491V42.9597C77.51 42.8011 77.4931 42.6402 77.4415 42.4889C77.3898 42.3376 77.3048 42.1997 77.1925 42.0852C77.0803 41.9708 76.9437 41.8827 76.7928 41.8274C76.6418 41.7721 76.4803 41.751 76.3201 41.7657C76.1861 41.7509 76.0504 41.7631 75.9213 41.8017C75.7922 41.8404 75.6722 41.9045 75.5687 41.9904C75.4652 42.0763 75.3803 42.182 75.319 42.3014C75.2578 42.4207 75.2215 42.5511 75.2124 42.6847H73.9177C73.9345 42.3834 74.0124 42.0886 74.1465 41.8178C74.2807 41.547 74.4685 41.3059 74.6987 41.1089C74.9288 40.9118 75.1966 40.7629 75.4861 40.671C75.7755 40.5791 76.0806 40.5461 76.3832 40.5739C76.7053 40.5483 77.0291 40.5924 77.3323 40.7033C77.6355 40.8141 77.9108 40.989 78.1393 41.2158C78.3677 41.4427 78.5438 41.7162 78.6554 42.0173C78.767 42.3184 78.8115 42.6399 78.7856 42.9597V45.162C78.8059 45.7543 78.9429 46.337 79.1887 46.877H77.7995L77.5831 46.1727C77.3743 46.4356 77.1071 46.647 76.8025 46.7905C76.4978 46.9339 76.164 47.0056 75.8268 47M73.3614 11.9648C74.0602 11.5215 74.6354 10.9106 75.034 10.1885C75.4326 9.46641 75.6418 8.65629 75.6423 7.8328C75.6931 7.23596 75.5762 6.63682 75.3047 6.10196C75.0332 5.5671 74.6177 5.11748 74.1043 4.80305C74.4375 5.33448 74.6088 5.95026 74.5975 6.57617C74.5918 7.32203 74.359 8.04872 73.9298 8.66086C73.5007 9.27299 72.8951 9.74195 72.1927 10.0062C72.7406 10.5521 73.1423 11.2254 73.3614 11.9648M73.8252 6.48673C73.8643 6.00783 73.7215 5.53172 73.4248 5.15221C73.128 4.7727 72.6989 4.51729 72.222 4.43632C72.4801 4.91568 72.6074 5.45372 72.5913 5.99705C72.5913 6.62907 72.4122 7.24835 72.0746 7.7841C71.737 8.31984 71.2544 8.75045 70.682 9.02673C72.6228 9.02673 73.8252 8.0474 73.8252 6.48673M68.2187 3.67164C68.6195 3.67164 68.8942 3.39635 68.9257 2.87337H68.3718C67.9418 2.87337 67.7864 3.05902 67.7864 3.27361C67.7858 3.32875 67.7968 3.38339 67.8187 3.43405C67.8407 3.48471 67.873 3.53024 67.9137 3.56773C67.9545 3.60522 68.0026 3.63383 68.0551 3.65172C68.1077 3.66961 68.1634 3.67641 68.2187 3.67164M70.002 47.0002C68.4011 47.0002 67.3854 46.1103 67.2618 44.8247H68.5564C68.7095 45.4687 69.2027 45.8041 70.0335 45.8041C70.745 45.8041 71.1435 45.5288 71.1435 45.0707C71.1435 44.735 70.9272 44.458 70.2519 44.3664L69.295 44.2434C68.1241 44.0936 67.4487 43.4809 67.4487 42.4703C67.4487 41.3366 68.4011 40.5741 69.7566 40.5741C71.2673 40.5741 72.2535 41.4283 72.3774 42.5933H71.0512C70.9687 42.3237 70.7945 42.0909 70.5584 41.9347C70.3223 41.7785 70.0388 41.7086 69.7566 41.7369C69.0811 41.7369 68.6803 42.041 68.6803 42.4703C68.6803 42.7766 68.8942 43.0517 69.5111 43.1142L70.405 43.2372C70.778 43.2655 71.1431 43.3587 71.4836 43.5125C71.7785 43.6596 72.0249 43.8875 72.1937 44.1692C72.3625 44.4509 72.4465 44.7747 72.436 45.1023C72.436 46.2337 71.6074 47.0006 70.0019 47.0006M68.8333 2.29466C69.7511 1.64084 70.8472 1.27906 71.9765 1.25717C72.5771 1.23034 73.1735 1.36722 73.7013 1.65299C73.4648 1.64212 73.2294 1.69269 73.0186 1.79974C72.8077 1.90678 72.6286 2.06659 72.499 2.26337H73.949C73.8859 2.99899 73.332 3.45737 72.4088 3.54902C72.8888 3.71842 73.3364 3.96716 73.7328 4.28471C74.0505 4.18994 74.3388 4.01647 74.5704 3.7806C74.802 3.54474 74.9694 3.25423 75.0568 2.93642C76.1176 4.33552 76.662 6.05408 76.599 7.80428C76.5623 8.93413 76.2688 10.0411 75.7405 11.0424C75.2122 12.0437 74.4627 12.9134 73.5481 13.5865V13.9822C73.5481 15.7285 74.4736 16.3076 75.5498 16.3076C75.7525 16.3261 75.9568 16.2985 76.1471 16.2269C76.3375 16.1553 76.5089 16.0416 76.6485 15.8944C76.788 15.7472 76.8919 15.5704 76.9524 15.3774C77.0129 15.1844 77.0284 14.9803 76.9976 14.7805C76.9976 13.7385 76.6284 12.8799 76.6284 11.9027C76.6284 10.19 77.6145 9.11677 79.1254 9.11677C79.6551 9.12168 80.1703 9.28912 80.6003 9.59614C81.0304 9.90316 81.3544 10.3347 81.5278 10.8317C81.8274 11.7701 81.9428 12.7569 81.8678 13.7385V16.0326C80.697 15.9117 79.6793 15.2075 79.6793 14.0135C79.6483 13.6455 79.7629 13.2801 79.9987 12.9946C80.2345 12.709 80.573 12.526 80.9425 12.4841V12.1174C80.9425 10.7401 80.2648 9.82111 79.0939 9.82111C78.1392 9.82111 77.6145 10.4941 77.6145 11.7194C77.6145 13.3092 78.9722 14.6575 78.9722 16.9203C79.0196 17.5508 78.8501 18.1786 78.4914 18.701C78.1326 19.2233 77.606 19.6093 76.9976 19.7957C76.2591 17.9913 74.9354 16.7682 73.4559 16.7682C73.1053 16.7549 72.7589 16.847 72.462 17.0325C72.1651 17.218 71.9315 17.4883 71.7919 17.8079C72.0806 17.6747 72.3971 17.6119 72.7151 17.6246C74.4736 17.6246 75.8583 19.0646 76.3515 21.8796C76.6895 23.8652 77.7069 24.6925 79.2177 24.8468C79.1163 25.2352 78.8898 25.58 78.5728 25.8287C78.2557 26.0773 77.8654 26.2162 77.4615 26.2241V30.629C77.4615 31.9147 76.9684 32.4021 75.9506 32.4021H75.2729C75.2938 31.9229 75.4673 31.4625 75.7683 31.0873H74.5029C74.175 31.449 73.9888 31.9156 73.9782 32.4021H73.2081C73.2143 31.9304 73.3651 31.4718 73.6405 31.0873H72.3462C72.0752 31.4707 71.9449 31.9348 71.9769 32.4021H71.1776V32.2208C71.1776 31.0582 71.8846 29.8329 73.7625 29.5284L74.3186 29.4368C75.181 29.3138 75.4895 28.8554 75.4895 27.9968C75.4895 25.9489 74.2871 24.692 72.1008 24.4774C71.9477 20.4996 70.4053 18.0534 67.5708 16.9824C68.5266 16.6991 69.3617 16.1107 69.9467 15.3083C70.5316 14.506 70.8338 13.5344 70.8064 12.5442C70.8064 10.4648 69.4509 9.15 67.9086 9.15C67.6503 9.12087 67.3887 9.1468 67.1413 9.22606C66.8939 9.30532 66.6664 9.43611 66.474 9.60964C66.2815 9.78318 66.1286 9.99549 66.0253 10.2324C65.9221 10.4693 65.871 10.7254 65.8753 10.9835C66.002 10.695 66.2148 10.4521 66.4851 10.2878C66.7553 10.1234 67.0699 10.0455 67.3862 10.0646C68.494 10.0646 69.2955 11.0461 69.2955 12.5778C69.2955 14.6861 67.8184 15.9116 65.8123 16.2469C65.5679 16.2537 65.3274 16.3095 65.1053 16.4111C64.8832 16.5128 64.6842 16.658 64.5202 16.8382C64.3563 17.0184 64.2308 17.2297 64.1514 17.4593C64.072 17.689 64.0403 17.9322 64.0582 18.1744C63.966 19.7038 63.3491 20.3187 62.4552 20.4081V17.0117C64.4883 15.8803 65.353 14.6259 65.5353 13.3716C65.2381 13.1589 64.9966 12.8786 64.8309 12.5541C64.6652 12.2297 64.5801 11.8705 64.5829 11.5067C64.5829 9.97285 65.5985 8.62906 68.1562 8.44569C70.313 8.29126 71.6371 7.49541 71.6371 5.69094L71.5763 5.26392C71.248 5.85611 70.773 6.35527 70.1961 6.71409C69.6193 7.0729 68.9597 7.27947 68.2799 7.31425C67.6602 7.33774 67.0474 7.45083 66.4606 7.64997C66.2742 7.19344 66.1905 6.70202 66.2152 6.21003C65.9973 6.24028 65.7876 6.31332 65.5983 6.42489C65.1751 6.62588 64.712 6.73054 64.2428 6.73126C62.9774 6.73126 62.1465 6.05822 62.1465 5.11016C62.1465 4.25382 62.6712 3.79316 63.9343 3.79316C64.2129 3.7886 64.491 3.76841 64.7674 3.73272C64.7898 4.14161 64.6509 4.54312 64.3802 4.85203C64.1095 5.16093 63.7283 5.35295 63.3174 5.38734C63.3167 5.50135 63.34 5.61424 63.3857 5.71883C63.4314 5.82342 63.4986 5.91742 63.5829 5.99484C63.6672 6.07225 63.7668 6.13137 63.8754 6.16845C63.9839 6.20553 64.0991 6.21977 64.2135 6.21023C64.5786 6.2024 64.9327 6.08466 65.229 5.87257C65.5974 5.63965 66.0239 5.51344 66.4606 5.50813C66.7182 5.4954 66.9718 5.57478 67.1755 5.7319C67.3792 5.88902 67.5194 6.11346 67.5706 6.36446H68.7099C68.7038 6.16418 68.657 5.96719 68.5723 5.78532C68.4877 5.60345 68.3668 5.44047 68.2171 5.30617C68.0673 5.17187 67.8918 5.06902 67.701 5.00382C67.5102 4.93861 67.3081 4.91239 67.1068 4.92673H66.6475C66.4876 4.94585 66.3254 4.92922 66.1728 4.87805C66.0202 4.82688 65.8811 4.74247 65.7656 4.631C65.6501 4.51952 65.5612 4.38382 65.5054 4.23381C65.4495 4.0838 65.4282 3.92327 65.4429 3.76401L65.4114 2.99933C65.9625 2.98321 66.5063 2.86886 67.0167 2.66173C67.591 2.41827 68.2093 2.29349 68.8338 2.29499M63.1935 47.0009C61.5026 47.0009 60.4848 45.9299 60.4848 44.1859V40.6956H61.8088V44.1859C61.8088 45.04 62.2096 45.7152 63.1935 45.7152C63.393 45.7251 63.5923 45.6913 63.7773 45.6162C63.9622 45.5412 64.1283 45.4266 64.2636 45.2806C64.399 45.1347 64.5004 44.961 64.5606 44.7718C64.6208 44.5826 64.6384 44.3826 64.6121 44.1859V40.6956H65.9383V44.1859C65.9383 45.9299 64.9228 47.0009 63.1932 47.0009M61.4708 31.0875C61.1589 31.4565 60.9841 31.9207 60.9755 32.4023H60.1762V32.221C60.1762 31.15 60.9146 29.956 62.9186 29.4664L63.9341 29.2226C64.4959 29.1428 65.0092 28.8625 65.3781 28.4341C65.7469 28.0057 65.946 27.4586 65.938 26.895C65.9029 26.3413 65.6794 25.816 65.3043 25.4049C64.9292 24.9938 64.4246 24.7214 63.8733 24.6323C63.8733 21.5712 64.7063 19.6125 67.0773 18.3894C67.8398 18.4932 68.5414 18.8597 69.0595 19.4249C69.5777 19.9901 69.8794 20.7181 69.912 21.4817C69.4248 21.6103 68.9917 21.8899 68.6757 22.2801C68.3598 22.6702 68.1776 23.1503 68.1558 23.6504C67.4488 23.3464 66.9557 22.7047 66.9557 21.3564C66.6202 21.8545 66.4472 22.4431 66.4603 23.0423C66.4603 25.0297 68.0027 26.1011 70.0651 26.2845C69.8757 26.5872 69.6065 26.8327 69.2866 26.9943C68.9666 27.1559 68.6083 27.2275 68.2503 27.2012L66.5527 31.302C66.438 31.6362 66.2169 31.9243 65.9229 32.1228C65.6288 32.3212 65.2777 32.4193 64.9225 32.4021H64.272C64.3216 31.929 64.4921 31.4765 64.7673 31.0873H63.5042C63.2245 31.4695 63.0732 31.9296 63.0719 32.4021H62.2707C62.2623 31.9329 62.4025 31.473 62.6715 31.0873L61.4708 31.0875ZM63.6865 7.52711C64.4294 7.65011 64.7987 7.9855 64.891 8.41481C64.3863 8.79579 63.9824 9.29269 63.7137 9.86286C63.4451 10.433 63.3198 11.0594 63.3487 11.6883C63.3244 12.2388 63.4407 12.7864 63.6867 13.2802C62.8851 13.1573 62.4865 12.5782 62.455 10.6799C62.392 8.17106 61.3158 7.16043 59.3433 7.16043H59.0053V4.10161C59.3776 4.2164 59.717 4.41766 59.9954 4.68868C60.2738 4.9597 60.4831 5.29268 60.6061 5.66006C61.0699 6.85406 61.8377 7.25209 63.6864 7.52711M59.9284 17.7477H58.7891V23.9279C59.4941 21.9403 59.8786 19.8545 59.9284 17.7477ZM57.9875 25.6742V17.747H56.8167V27.4156C57.2425 26.8593 57.6335 26.2776 57.9875 25.6737M55.9858 44.2434C55.3374 44.2434 54.9681 44.5811 54.9681 45.0395C54.9681 45.5292 55.3374 45.8668 56.0466 45.8668C56.2528 45.866 56.4565 45.822 56.6443 45.7376C56.8321 45.6532 56.9999 45.5304 57.1366 45.3771C57.2733 45.2238 57.3759 45.0436 57.4375 44.8482C57.4992 44.6529 57.5186 44.4468 57.4944 44.2434H55.9858ZM56.0152 28.272V17.747H54.8443V29.3136C55.2428 28.976 55.6458 28.6406 56.0152 28.2717M55.8304 47.0001C54.5065 47.0001 53.6442 46.2332 53.6442 45.1309C53.6442 43.9704 54.5065 43.2661 55.8913 43.2661H57.4944V42.9597C57.5135 42.8011 57.4966 42.6402 57.4449 42.4889C57.3933 42.3376 57.3082 42.1997 57.196 42.0852C57.0837 41.9708 56.9471 41.8827 56.7962 41.8274C56.6452 41.7721 56.4838 41.751 56.3235 41.7657C56.0504 41.7405 55.7781 41.8226 55.5651 41.9944C55.3522 42.1662 55.2154 42.414 55.1843 42.6847H53.8921C53.9147 42.383 53.9972 42.0888 54.135 41.819C54.2728 41.5492 54.4631 41.3092 54.6949 41.1129C54.9266 40.9166 55.1953 40.7679 55.4854 40.6754C55.7754 40.5829 56.0811 40.5484 56.3846 40.5739C56.7068 40.5481 57.0308 40.5921 57.3342 40.7028C57.6376 40.8136 57.9132 40.9884 58.1419 41.2153C58.3705 41.4421 58.5469 41.7156 58.6587 42.0168C58.7705 42.318 58.8151 42.6397 58.7894 42.9597V45.162C58.8082 45.7541 58.9435 46.3367 59.1879 46.877H57.7739L57.587 46.1727C57.378 46.4354 57.1108 46.6466 56.8062 46.7901C56.5016 46.9336 56.1678 47.0054 55.8307 47M54.0452 29.8657V17.747H52.8721V30.568C53.2729 30.3532 53.6737 30.1097 54.0452 29.8659M52.0706 30.9347V17.747H50.902V31.4535C51.3006 31.3015 51.672 31.1159 52.0706 30.9347M50.1004 31.4535V17.747H48.9296V30.9638L50.1004 31.4535ZM52.4713 46.8772H47.2049V37.6359H48.5288V45.6205H52.4713V46.8772ZM48.1281 30.5682V17.747H46.9595V29.895C47.3288 30.1387 47.725 30.3534 48.1281 30.568M46.1578 29.3136V17.747H44.9848V28.303C45.346 28.6725 45.7385 29.0106 46.1578 29.3136M57.9562 6.02848H43.0439V7.1599H57.9562L57.9562 6.02848ZM57.9562 2.8735C57.4623 2.48489 56.9365 2.13785 56.3845 1.83601V3.91502H54.813V1.04184C54.3112 0.763235 53.7723 0.556235 53.2122 0.426945V3.91502H51.3006V0.0914972C50.774 -0.0307025 50.2262 -0.0307025 49.6996 0.0914972V3.91502H47.7881V0.426945C47.2283 0.55701 46.6894 0.763969 46.1872 1.04184V3.91502H44.6156V1.83554C44.0639 2.13794 43.5383 2.48494 43.044 2.87302V5.10889H57.9563L57.9562 2.8735ZM44.1832 27.415V17.7465H43.0147V25.7029C43.3503 26.3083 43.7414 26.8816 44.1832 27.4156M42.2108 23.9588V17.7473H41.0715C41.1043 19.866 41.4893 21.9648 42.2108 23.9588M59.9583 10.5561H41.0404V16.6133H59.9583V10.5561ZM61.1336 16.9196C61.1336 25.5818 57.4635 30.3824 50.5016 32.7392C43.5396 30.3825 39.8718 25.5817 39.8718 16.9196V9.42249H61.1336V16.9196ZM41.4096 43.2035C41.4022 42.9998 41.3538 42.7996 41.2672 42.6148C41.1806 42.4301 41.0576 42.2644 40.9054 42.1276C40.7532 41.9909 40.575 41.8858 40.3812 41.8187C40.1874 41.7515 39.982 41.7236 39.7772 41.7367C39.3597 41.7328 38.955 41.8792 38.6379 42.1489C38.3208 42.4186 38.1128 42.7932 38.0525 43.2035H41.4096ZM39.7772 47.0001C39.356 47.0122 38.937 46.9362 38.5474 46.7769C38.1577 46.6176 37.8062 46.3787 37.5157 46.0756C37.2252 45.7725 37.0021 45.4122 36.8611 45.0179C36.72 44.6236 36.6641 44.2042 36.697 43.7871C36.6762 43.3674 36.7427 42.948 36.8921 42.555C37.0415 42.1619 37.2707 41.8035 37.5655 41.5022C37.8603 41.2008 38.2144 40.9629 38.6057 40.8032C38.997 40.6436 39.4172 40.5655 39.8402 40.5739C40.2298 40.5598 40.6181 40.6266 40.9801 40.7701C41.3422 40.9135 41.6701 41.1305 41.9429 41.4071C42.2157 41.6837 42.4273 42.0137 42.5642 42.3762C42.7011 42.7387 42.7603 43.1256 42.738 43.5121C42.7409 43.7465 42.7296 43.981 42.7042 44.2141H38.0231C38.0508 44.6593 38.2539 45.0757 38.5885 45.3733C38.9231 45.6708 39.3622 45.8255 39.8109 45.8039C40.094 45.8392 40.3813 45.7879 40.6344 45.6568C40.8874 45.5258 41.0942 45.3213 41.2272 45.0705H42.5826C42.3993 45.6572 42.0235 46.166 41.515 46.5158C41.0065 46.8655 40.3946 47.0361 39.7771 47.0001M37.3116 7.52637C39.1624 7.25108 39.9325 6.85333 40.394 5.65933C40.517 5.29193 40.7264 4.95892 41.0048 4.6879C41.2832 4.41688 41.6226 4.21564 41.995 4.10087V7.15969H41.6572C39.687 7.15969 38.6063 8.17033 38.5455 10.6791C38.5162 12.5774 38.1131 13.1567 37.3116 13.2795C37.5594 12.7862 37.6764 12.2383 37.6516 11.6876C37.6808 11.0589 37.5559 10.4326 37.2877 9.86237C37.0194 9.29219 36.6158 8.79518 36.1115 8.41405C36.2038 7.98474 36.5753 7.64937 37.3116 7.52637M32.7837 3.67155C32.8391 3.67651 32.8949 3.66985 32.9475 3.65203C33.0001 3.6342 33.0483 3.6056 33.0891 3.56808C33.1298 3.53055 33.1622 3.48493 33.184 3.43419C33.2059 3.38345 33.2168 3.32871 33.216 3.27353C33.216 3.05867 33.0628 2.87329 32.6305 2.87329H32.0744C32.106 3.39653 32.3828 3.67155 32.7837 3.67155ZM38.3294 31.0867C38.5983 31.4725 38.7385 31.9324 38.7302 32.4015H37.9286C37.9268 31.9294 37.7765 31.4697 37.4985 31.0867H36.2353C36.5108 31.4756 36.6807 31.9284 36.7284 32.4015H36.0822C35.7263 32.42 35.374 32.3226 35.0789 32.124C34.7838 31.9255 34.5622 31.6366 34.4476 31.3015L32.7522 27.2006C32.3939 27.2272 32.0351 27.1558 31.7147 26.9942C31.3944 26.8326 31.1248 26.587 30.9351 26.2839C32.9998 26.1006 34.5399 25.0295 34.5399 23.0417C34.552 22.4427 34.3791 21.8544 34.0446 21.3559C34.0446 22.7041 33.5537 23.3459 32.8467 23.6499C32.8244 23.1496 32.6418 22.6694 32.3255 22.2793C32.0092 21.8892 31.5757 21.6096 31.0882 21.4812C31.1209 20.7176 31.4226 19.9896 31.9407 19.4244C32.4589 18.8592 33.1605 18.4927 33.923 18.3889C36.2962 19.6119 37.1269 21.5706 37.1269 24.6318C36.576 24.7214 36.0721 24.994 35.6975 25.4051C35.3229 25.8161 35.0998 26.3412 35.0648 26.8945C35.0568 27.458 35.2559 28.0052 35.6247 28.4336C35.9935 28.862 36.5069 29.1423 37.0687 29.2221L38.0842 29.4658C40.0882 29.9555 40.8244 31.1495 40.8244 32.2205V32.4018H40.0251C40.0172 31.9204 39.8431 31.4563 39.532 31.087L38.3294 31.0867ZM31.9505 41.8284C30.8743 41.8284 30.1944 42.5618 30.1944 43.7871C30.1654 44.0372 30.1901 44.2905 30.2668 44.5304C30.3434 44.7704 30.4704 44.9915 30.6392 45.1792C30.8081 45.367 31.015 45.5171 31.2465 45.6198C31.4779 45.7224 31.7286 45.7753 31.9821 45.7748C33.0921 45.7748 33.7699 44.9789 33.7699 43.7871C33.801 43.5354 33.7766 43.2801 33.6984 43.0387C33.6201 42.7974 33.49 42.5758 33.3169 42.3894C33.1437 42.2031 32.9319 42.0563 32.6959 41.9595C32.46 41.8626 32.2056 41.8178 31.9505 41.8284M31.8268 47.0001C31.0019 46.9514 30.2269 46.5917 29.6602 45.9945C29.0935 45.3972 28.7778 44.6076 28.7778 43.787C28.7778 42.9664 29.0935 42.1768 29.6602 41.5796C30.2269 40.9824 31.0019 40.6226 31.8268 40.5739C32.1836 40.5656 32.5383 40.632 32.8676 40.7688C33.197 40.9056 33.4937 41.1096 33.7384 41.3678V37.6359H35.096V46.8772H33.8014V46.1729C33.5463 46.437 33.2396 46.6467 32.9001 46.7889C32.5605 46.9312 32.1953 47.0031 31.8268 47.0001M27.175 6.48667C27.175 8.04733 28.3774 9.02667 30.3183 9.02667C29.7462 8.75002 29.2638 8.31931 28.9262 7.78364C28.5886 7.24798 28.4094 6.62891 28.4089 5.99699C28.3917 5.45356 28.5191 4.91524 28.7782 4.43626C28.3015 4.51762 27.8726 4.77312 27.576 5.15254C27.2793 5.53196 27.1363 6.00785 27.175 6.48667M27.6389 11.9648C27.8578 11.2248 28.2604 10.5513 28.8097 10.0061C28.1073 9.74213 27.5019 9.27316 27.0731 8.66092C26.6442 8.04868 26.4121 7.32185 26.4073 6.57609C26.3941 5.95027 26.5646 5.33419 26.8981 4.80299C26.3844 5.11728 25.9686 5.56681 25.6967 6.10165C25.4249 6.6365 25.3076 7.23571 25.358 7.83274C25.3585 8.65622 25.5677 9.46633 25.9663 10.1884C26.3649 10.9105 26.9401 11.5214 27.6389 11.9648M23.5072 43.2035C23.5 42.9997 23.4517 42.7995 23.3652 42.6146C23.2786 42.4297 23.1556 42.264 23.0034 42.1272C22.8512 41.9904 22.6728 41.8854 22.4789 41.8183C22.2851 41.7512 22.0796 41.7234 21.8748 41.7367C21.4574 41.7331 21.0528 41.8797 20.7358 42.1493C20.4188 42.4189 20.2108 42.7934 20.1501 43.2035H23.5072ZM32.1691 2.29419C32.7936 2.29242 33.4119 2.41721 33.9861 2.66093C34.4957 2.86826 35.0388 2.98262 35.5893 2.99853L35.5577 3.76321C35.5727 3.92233 35.5516 4.08277 35.496 4.23274C35.4404 4.38272 35.3517 4.51843 35.2364 4.62993C35.1211 4.74143 34.9822 4.82589 34.8297 4.87711C34.6773 4.92832 34.5152 4.945 34.3554 4.92591H33.8916C33.6905 4.91215 33.4888 4.93879 33.2983 5.00423C33.1079 5.06967 32.9328 5.17259 32.7833 5.30681C32.6339 5.44103 32.5132 5.60379 32.4285 5.78538C32.3439 5.96697 32.297 6.16366 32.2906 6.36366H33.43C33.4812 6.11266 33.6214 5.88822 33.8251 5.7311C34.0288 5.57398 34.2824 5.49458 34.54 5.50731C34.9774 5.51301 35.4045 5.63919 35.7739 5.87177C36.071 6.08385 36.4258 6.20158 36.7916 6.20943C36.9055 6.21832 37.0201 6.20358 37.128 6.16618C37.2359 6.12877 37.3348 6.0695 37.4185 5.99213C37.5021 5.91476 37.5686 5.82097 37.6138 5.71672C37.659 5.61247 37.6819 5.50002 37.681 5.38652C37.2709 5.35112 36.8907 5.15866 36.6209 4.84985C36.3511 4.54105 36.2129 4.14013 36.2355 3.73192C36.5118 3.76761 36.79 3.78778 37.0686 3.79235C38.3295 3.79235 38.8541 4.25302 38.8541 5.10936C38.8541 6.05742 38.0232 6.73046 36.7601 6.73046C36.2902 6.72971 35.8264 6.62505 35.4024 6.42409C35.2137 6.31291 35.0048 6.23989 34.7877 6.20923C34.8118 6.70139 34.7272 7.19284 34.54 7.64917C33.9541 7.45 33.3419 7.3369 32.723 7.31345C32.0431 7.27926 31.3833 7.07292 30.8063 6.71405C30.2293 6.35517 29.7544 5.8557 29.4267 5.26312L29.3636 5.69014C29.3636 7.49461 30.6876 8.2906 32.8468 8.44489C35.4026 8.62826 36.4224 9.97205 36.4224 11.5059C36.4249 11.8701 36.3393 12.2296 36.1728 12.5542C36.0062 12.8787 35.7637 13.1587 35.4654 13.3708C35.6501 14.6251 36.5124 15.8795 38.5456 17.0109V20.4073C37.6517 20.3179 37.0371 19.703 36.9448 18.1736C36.9626 17.9311 36.9307 17.6875 36.851 17.4576C36.7713 17.2277 36.6454 17.0162 36.481 16.836C36.3166 16.6559 36.117 16.5107 35.8945 16.4093C35.6719 16.3079 35.431 16.2524 35.1862 16.2461C33.1849 15.9104 31.7052 14.6855 31.7052 12.577C31.7052 11.0453 32.5068 10.0638 33.6146 10.0638C33.931 10.0444 34.2457 10.1222 34.516 10.2866C34.7863 10.451 34.9991 10.694 35.1255 10.9827C35.1298 10.7246 35.0787 10.4685 34.9754 10.2316C34.8722 9.9947 34.7193 9.78238 34.5268 9.60885C34.3344 9.43531 34.1069 9.30455 33.8595 9.22529C33.6121 9.14602 33.3505 9.12009 33.0922 9.14921C31.5522 9.14921 30.1945 10.464 30.1945 12.5434C30.1671 13.5336 30.4692 14.5051 31.0542 15.3075C31.6391 16.1099 32.4741 16.6983 33.43 16.9815C30.5952 18.0526 29.0555 20.4988 28.9043 24.4766C26.7136 24.6914 25.5134 25.9478 25.5134 27.996C25.5134 28.8546 25.8218 29.3129 26.6842 29.4359L27.2359 29.5276C29.1182 29.8318 29.8254 31.0571 29.8254 32.22V32.4013H29.0239C29.056 31.934 28.9256 31.4699 28.6546 31.0865H27.3599C27.6353 31.471 27.7861 31.9296 27.7923 32.4013H27.0222C27.0126 31.9146 26.8263 31.4477 26.4975 31.0865H25.2345C25.5357 31.4614 25.7085 31.9221 25.7275 32.4013H25.0521C24.0343 32.4013 23.539 31.9139 23.539 30.6282V26.2233C23.1355 26.2147 22.7459 26.0755 22.4293 25.8269C22.1127 25.5783 21.8865 25.2339 21.785 24.846C23.2935 24.6916 24.3091 23.8644 24.649 21.8788C25.1421 19.0638 26.5269 17.6238 28.2853 17.6238C28.6041 17.6106 28.9215 17.6735 29.2108 17.8071C29.071 17.4877 28.8373 17.2176 28.5405 17.0321C28.2436 16.8466 27.8973 16.7544 27.5468 16.7674C26.0675 16.7674 24.7435 17.9905 24.0029 19.7949C23.395 19.6082 22.869 19.222 22.511 18.6996C22.1531 18.1772 21.9844 17.5495 22.0327 16.9194C22.0327 14.6567 23.3881 13.3084 23.3881 11.7186C23.3881 10.4933 22.8635 9.82031 21.9088 9.82031C20.738 9.82031 20.058 10.7393 20.058 12.1166V12.4833C20.4279 12.5246 20.7669 12.7075 21.0032 12.993C21.2395 13.2786 21.3543 13.6444 21.3234 14.0127C21.3234 15.2067 20.3057 15.911 19.1349 16.0318V13.738C19.0596 12.7566 19.1743 11.7699 19.4726 10.8313C19.6464 10.3345 19.9704 9.90305 20.4004 9.59608C20.8304 9.28911 21.3455 9.12155 21.875 9.11632C23.3881 9.11632 24.3721 10.1895 24.3721 11.9023C24.3721 12.8794 24.0029 13.738 24.0029 14.78C23.9721 14.9798 23.9875 15.184 24.048 15.377C24.1085 15.57 24.2125 15.7468 24.352 15.894C24.4915 16.0411 24.663 16.1548 24.8533 16.2264C25.0437 16.298 25.2479 16.3256 25.4506 16.3072C26.5269 16.3072 27.452 15.7281 27.452 13.9818V13.586C26.5377 12.9128 25.7886 12.043 25.2606 11.0417C24.7327 10.0404 24.4396 8.93349 24.4033 7.80381C24.3407 6.054 24.8843 4.33579 25.9434 2.93595C26.0312 3.2536 26.1986 3.54393 26.4302 3.77974C26.6618 4.01556 26.9498 4.18914 27.2674 4.28424C27.6643 3.96621 28.1128 3.71745 28.5936 3.54855C27.6681 3.4569 27.1142 2.99852 27.0535 2.2629H28.5013C28.3716 2.06614 28.1925 1.90635 27.9816 1.79931C27.7708 1.69227 27.5355 1.64167 27.2989 1.65252C27.8267 1.36675 28.4231 1.22986 29.0236 1.2567C30.1536 1.2789 31.2503 1.64063 32.1691 2.29419M21.8744 47.0001C21.4532 47.012 21.0343 46.9358 20.6448 46.7765C20.2552 46.6171 19.9038 46.3782 19.6133 46.0752C19.3228 45.7722 19.0998 45.4118 18.9587 45.0176C18.8176 44.6234 18.7615 44.2042 18.7942 43.7871C18.7735 43.3674 18.8399 42.948 18.9893 42.555C19.1387 42.1619 19.3679 41.8035 19.6627 41.5022C19.9575 41.2008 20.3116 40.9629 20.7029 40.8032C21.0942 40.6435 21.5144 40.5655 21.9374 40.5739C22.3269 40.5599 22.715 40.6267 23.077 40.7702C23.4389 40.9137 23.7667 41.1307 24.0393 41.4073C24.3119 41.6839 24.5233 42.014 24.66 42.3765C24.7966 42.7389 24.8556 43.1257 24.833 43.5121C24.8357 43.7465 24.8252 43.9808 24.8014 44.2141H20.1182C20.1471 44.6592 20.3509 45.0753 20.6857 45.3726C21.0205 45.67 21.4595 45.8249 21.9082 45.8039C22.1914 45.8395 22.4787 45.7883 22.7318 45.6573C22.985 45.5262 23.1917 45.3215 23.3244 45.0705H24.6821C24.4978 45.657 24.1213 46.1655 23.6126 46.5151C23.1038 46.8647 22.492 47.0354 21.8744 47.0001M17.1618 46.8772H15.8402V37.6359H17.1618V46.8772ZM14.0186 46.8772H12.7239V37.6359H14.0186V46.8772ZM10.8438 46.8772H9.5176V40.6947H10.8438V46.8772ZM10.1976 39.1966C10.0268 39.1969 9.85975 39.1468 9.7176 39.0528C9.57546 38.9587 9.4646 38.825 9.39902 38.6684C9.33344 38.5117 9.31609 38.3393 9.34919 38.1729C9.38228 38.0065 9.46434 37.8536 9.58495 37.7335C9.70556 37.6134 9.85932 37.5316 10.0268 37.4983C10.1943 37.4649 10.3679 37.4817 10.5258 37.5464C10.6837 37.6111 10.8187 37.7208 10.9138 37.8618C11.0088 38.0027 11.0597 38.1684 11.0599 38.338C11.0627 38.4514 11.0424 38.5641 11 38.6693C10.9577 38.7746 10.8944 38.8703 10.8137 38.9505C10.7331 39.0308 10.637 39.094 10.5311 39.1363C10.4252 39.1786 10.3117 39.1991 10.1976 39.1966ZM4.86785 46.8772H3.48084L-9.15527e-05 37.6359H1.44769L4.19233 45.1309L6.96186 37.6359H8.38038L4.86785 46.8772Z" fill="black"/>
</g>
<defs>
<clipPath id="clip0_209_2">
<rect width="101" height="47" fill="white"/>
</clipPath>
</defs>
</svg>
