<svg xmlns="http://www.w3.org/2000/svg" xmlns:xlink="http://www.w3.org/1999/xlink" width="175.927" height="1097.87" viewBox="0 0 175.927 1097.87">
  <defs>
    <clipPath id="clip-path">
      <path id="Path_4" data-name="Path 4" d="M0,175.927H1097.87V0H0Z"/>
    </clipPath>
  </defs>
  <g id="logo-lj24__top" transform="translate(175.927) rotate(90)">
    <g id="Group_2" data-name="Group 2" clip-path="url(#clip-path)">
      <g id="Group_1" data-name="Group 1" transform="translate(0 0)">
        <path id="Path_3" data-name="Path 3" d="M88.087,151.322v20.914H55.362q-26.823,0-41.091-13.163T0,118.105V0H24.605V118.105q0,16.735,6.643,24.975t24.113,8.242Zm65.2,4.921a24.286,24.286,0,0,1-8.612-3.937,18.178,18.178,0,0,1-5.783-7.257,26.045,26.045,0,0,1-2.09-10.95q0-10.334,6.4-16.239t19.438-7.136l41.829-3.691v9.842a44.231,44.231,0,0,1-3.2,17.224,36.576,36.576,0,0,1-8.736,12.795,37.72,37.72,0,0,1-12.917,7.874,45.352,45.352,0,0,1-15.747,2.707,43.384,43.384,0,0,1-10.58-1.23m-9.6-78.737q.978-8.363,8.488-13.411t21.531-5.043a47.351,47.351,0,0,1,14.763,1.968,23.049,23.049,0,0,1,9.472,5.659,20.7,20.7,0,0,1,5.045,8.982,43.426,43.426,0,0,1,1.476,11.686v2.461L160.18,93.5q-24.119,1.972-35.556,12.919t-11.44,27.68A41.85,41.85,0,0,0,117,152.552a36.262,36.262,0,0,0,10.458,13.041,46.009,46.009,0,0,0,15.377,7.75,65.169,65.169,0,0,0,18.578,2.585q15.741,0,26.574-6.151t16.485-13.533v15.993H228.09V87.349q0-15.5-6.151-25.835a37.093,37.093,0,0,0-19.562-16.239A82.469,82.469,0,0,0,173.713,40.6a78.572,78.572,0,0,0-22.761,2.953,54.987,54.987,0,0,0-16.486,7.874A35.332,35.332,0,0,0,124.01,63.113a40.614,40.614,0,0,0-4.675,14.393Zm205.7,94.73h23.621V44.289H349.392v72.585q0,19.441-9.842,29.4t-24.605,9.964q-15.5,0-22.391-8.12t-6.889-23.867V44.289H262.043v82.428q0,24.116,12.178,36.662t34.571,12.549a60.509,60.509,0,0,0,23.989-4.675,33.335,33.335,0,0,0,16.61-15.009Zm110.721-52.409a86.817,86.817,0,0,1,10.7,1.968,35.77,35.77,0,0,1,8.366,3.2,14.713,14.713,0,0,1,5.537,5.167,15.814,15.814,0,0,1,1.968,8.366q0,8.858-7.752,14.025t-23,5.167q-14.763,0-22.883-5.043t-8.612-16.117H400.569a36.012,36.012,0,0,0,3.937,15.747,36.566,36.566,0,0,0,10.7,12.427,52.514,52.514,0,0,0,17.224,8.242,84.789,84.789,0,0,0,23.5,2.953q25.836,0,39.982-10.826t14.149-28.542q0-10.334-3.569-17.346a31.4,31.4,0,0,0-9.718-11.442,47.9,47.9,0,0,0-14.4-6.889,133.618,133.618,0,0,0-17.838-3.937l-11.811-1.722q-12.306-1.965-19.316-5.781T426.4,76.276q0-7.382,6.765-12.549t22.269-5.167q14.268,0,21.407,5.291a17.683,17.683,0,0,1,7.628,13.655H507.6a37.164,37.164,0,0,0-3.569-13.163,35.116,35.116,0,0,0-9.35-11.81,49.447,49.447,0,0,0-15.869-8.612q-9.6-3.322-22.883-3.323-25.835,0-39.368,10.58T403.029,78.245a35.1,35.1,0,0,0,3.445,16.117,34.725,34.725,0,0,0,9.472,11.562,49.106,49.106,0,0,0,14.4,7.752,98.5,98.5,0,0,0,18.208,4.429Zm114.166,36.416a24.32,24.32,0,0,1-8.612-3.937,18.191,18.191,0,0,1-5.781-7.257,26.045,26.045,0,0,1-2.09-10.95q0-10.334,6.4-16.239t19.438-7.136l41.827-3.691v9.842a44.232,44.232,0,0,1-3.2,17.224,36.577,36.577,0,0,1-8.736,12.795,37.722,37.722,0,0,1-12.917,7.874,45.352,45.352,0,0,1-15.747,2.707,43.413,43.413,0,0,1-10.582-1.23m-9.594-78.737q.978-8.363,8.488-13.411T594.7,59.053a47.356,47.356,0,0,1,14.765,1.968,23.062,23.062,0,0,1,9.472,5.659,20.7,20.7,0,0,1,5.045,8.982,43.511,43.511,0,0,1,1.474,11.686v2.461L581.169,93.5q-24.116,1.972-35.553,12.919t-11.44,27.68a41.851,41.851,0,0,0,3.813,18.454,36.28,36.28,0,0,0,10.456,13.041,46.039,46.039,0,0,0,15.379,7.75,65.164,65.164,0,0,0,18.576,2.585q15.744,0,26.576-6.151t16.483-13.533v15.993h23.623V87.349q0-15.5-6.151-25.835a37.092,37.092,0,0,0-19.562-16.239A82.472,82.472,0,0,0,594.7,40.6a78.568,78.568,0,0,0-22.759,2.953,54.988,54.988,0,0,0-16.485,7.874A35.361,35.361,0,0,0,545,63.113a40.651,40.651,0,0,0-4.673,14.393Zm143.2-33.217H684.262V172.237h23.621V99.651a47.18,47.18,0,0,1,2.831-16.978,36.931,36.931,0,0,1,7.628-12.425,30.122,30.122,0,0,1,11.318-7.506,39.079,39.079,0,0,1,13.9-2.461q15.5,0,22.391,8.12t6.889,23.867v79.967h23.621V89.809q0-24.11-12.178-36.662T749.712,40.6a55.988,55.988,0,0,0-24.235,5.291,40.656,40.656,0,0,0-17.594,15.623Zm147.383,0H831.646V172.237h23.621V99.651A47.225,47.225,0,0,1,858.1,82.674a36.93,36.93,0,0,1,7.628-12.425,30.138,30.138,0,0,1,11.318-7.506,39.091,39.091,0,0,1,13.9-2.461q15.5,0,22.391,8.12t6.889,23.867v79.967h23.621V89.809q0-24.11-12.181-36.662T897.1,40.6a56,56,0,0,0-24.237,5.291,40.64,40.64,0,0,0-17.592,15.623Zm214.8,92.27a22.1,22.1,0,0,1-2.953,7.011,27.554,27.554,0,0,1-6.151,6.767,30.927,30.927,0,0,1-9.842,5.167,42.693,42.693,0,0,1-13.533,1.968,38.257,38.257,0,0,1-16.61-3.445,39.556,39.556,0,0,1-12.425-9.1,43.759,43.759,0,0,1-11.318-28.05H1097.87v-2.461a129.279,129.279,0,0,0-.984-15.993,87.2,87.2,0,0,0-3.2-15.009q-6.155-19.192-20.176-31T1036.357,40.6a62.632,62.632,0,0,0-25.835,5.167,58.671,58.671,0,0,0-19.808,14.271,63.374,63.374,0,0,0-12.671,21.531,78.943,78.943,0,0,0-4.429,26.7,78.908,78.908,0,0,0,4.429,26.7,62.271,62.271,0,0,0,12.795,21.531,59.284,59.284,0,0,0,20.176,14.271,65.646,65.646,0,0,0,26.574,5.167,69.506,69.506,0,0,0,21.775-3.2,58.905,58.905,0,0,0,16.978-8.612,51.35,51.35,0,0,0,12.057-12.549,52,52,0,0,0,7.014-15.009Zm-17.594-74.43a33.106,33.106,0,0,1,11.688,8.366A36.6,36.6,0,0,1,1071.3,82.92a57.978,57.978,0,0,1,2.953,15.5H997.234a45.988,45.988,0,0,1,2.953-15.009,37.451,37.451,0,0,1,19.806-21.161,39.121,39.121,0,0,1,16.364-3.2,39.785,39.785,0,0,1,16.115,3.077"/>
      </g>
    </g>
  </g>
</svg>
